<svg width="12" height="12" viewBox="0 0 12 12" fill="none" xmlns="http://www.w3.org/2000/svg">
<path d="M11.8319 8.86989V10.6199C11.8325 10.7824 11.7993 10.9432 11.7342 11.092C11.6691 11.2409 11.5736 11.3745 11.4539 11.4843C11.3342 11.5941 11.1929 11.6778 11.039 11.7298C10.8851 11.7819 10.722 11.8012 10.5602 11.7866C8.76519 11.5915 7.04095 10.9781 5.52604 9.99573C4.1166 9.10011 2.92165 7.90516 2.02604 6.49573C1.04019 4.97393 0.426679 3.24131 0.235203 1.43823C0.220626 1.27692 0.239797 1.11434 0.291495 0.960841C0.343194 0.807345 0.426286 0.666296 0.535484 0.546673C0.644681 0.42705 0.77759 0.331474 0.925748 0.266032C1.07391 0.200589 1.23407 0.166713 1.39604 0.16656H3.14604C3.42913 0.163774 3.70358 0.264023 3.91823 0.448621C4.13288 0.633219 4.27308 0.889571 4.3127 1.16989C4.38657 1.72993 4.52355 2.27982 4.72104 2.80906C4.79952 3.01785 4.81651 3.24476 4.76998 3.46291C4.72346 3.68105 4.61537 3.88129 4.45854 4.03989L3.7177 4.78073C4.54811 6.24113 5.7573 7.45032 7.2177 8.28073L7.95854 7.53989C8.11714 7.38306 8.31738 7.27497 8.53552 7.22845C8.75367 7.18192 8.98058 7.19891 9.18937 7.27739C9.71861 7.47488 10.2685 7.61186 10.8285 7.68573C11.1119 7.7257 11.3707 7.86843 11.5557 8.08677C11.7407 8.3051 11.839 8.58381 11.8319 8.86989Z" fill="#153240"/>
</svg>
