<svg width="14" height="14" viewBox="0 0 14 14" fill="none" xmlns="http://www.w3.org/2000/svg">
<path d="M8.16536 1.16699H3.4987C3.18928 1.16699 2.89253 1.28991 2.67374 1.5087C2.45495 1.72749 2.33203 2.02424 2.33203 2.33366V11.667C2.33203 11.9764 2.45495 12.2732 2.67374 12.492C2.89253 12.7107 3.18928 12.8337 3.4987 12.8337H10.4987C10.8081 12.8337 11.1049 12.7107 11.3237 12.492C11.5424 12.2732 11.6654 11.9764 11.6654 11.667V4.66699L8.16536 1.16699Z" stroke="white" stroke-linecap="round" stroke-linejoin="round"/>
<path d="M8.16797 1.16699V4.66699H11.668" stroke="white" stroke-linecap="round" stroke-linejoin="round"/>
<path d="M9.33464 7.58301H4.66797" stroke="white" stroke-linecap="round" stroke-linejoin="round"/>
<path d="M9.33464 9.91699H4.66797" stroke="white" stroke-linecap="round" stroke-linejoin="round"/>
<path d="M5.83464 5.25H5.2513H4.66797" stroke="white" stroke-linecap="round" stroke-linejoin="round"/>
</svg>
