<svg width="17" height="17" viewBox="0 0 17 17" fill="none" xmlns="http://www.w3.org/2000/svg">
<path d="M12.75 0H4.25C1.90279 0 0 1.90279 0 4.25V12.75C0 15.0972 1.90279 17 4.25 17H12.75C15.0972 17 17 15.0972 17 12.75V4.25C17 1.90279 15.0972 0 12.75 0Z" fill="#153240"/>
<path d="M10.973 8.13329C11.0501 8.65345 10.9612 9.18468 10.7191 9.65142C10.4769 10.1182 10.0937 10.4967 9.62397 10.7331C9.15427 10.9695 8.62199 11.0518 8.10283 10.9682C7.58366 10.8847 7.10406 10.6396 6.73224 10.2678C6.36041 9.89594 6.11529 9.41634 6.03175 8.89717C5.94821 8.37801 6.0305 7.84573 6.26692 7.37603C6.50333 6.90633 6.88183 6.52313 7.34858 6.28094C7.81532 6.03876 8.34656 5.94991 8.86671 6.02704C9.39728 6.10572 9.88849 6.35296 10.2678 6.73223C10.647 7.11151 10.8943 7.60272 10.973 8.13329Z" fill="white"/>
<path d="M13.1816 3.82471H13.1916" stroke="white" stroke-width="2" stroke-linecap="round" stroke-linejoin="round"/>
</svg>
