<svg width="14" height="18" viewBox="0 0 14 18" fill="none" xmlns="http://www.w3.org/2000/svg">
<path d="M12.25 7.83325C12.25 11.9166 7 15.4166 7 15.4166C7 15.4166 1.75 11.9166 1.75 7.83325C1.75 6.44087 2.30312 5.10551 3.28769 4.12094C4.27226 3.13638 5.60761 2.58325 7 2.58325C8.39239 2.58325 9.72774 3.13638 10.7123 4.12094C11.6969 5.10551 12.25 6.44087 12.25 7.83325Z" fill="#153240"/>
<path d="M7 9.58325C7.9665 9.58325 8.75 8.79975 8.75 7.83325C8.75 6.86675 7.9665 6.08325 7 6.08325C6.0335 6.08325 5.25 6.86675 5.25 7.83325C5.25 8.79975 6.0335 9.58325 7 9.58325Z" fill="#FBFBF6"/>
</svg>
