<svg width="38" height="32" viewBox="0 0 38 32" fill="none" xmlns="http://www.w3.org/2000/svg">
<path d="M35.7671 2.36635C37.3357 3.21036 38.0154 4.45825 37.9997 6.27573C37.937 13.4835 37.9945 20.6965 37.9579 27.9042C37.9474 30.4155 36.2324 32 33.686 32C23.9448 32 14.1984 32 4.45719 32C1.64411 32 0.0911638 30.5657 0.0702488 27.811C0.0179611 20.6498 -0.00818532 13.4887 0.00227222 6.32751C0.00750098 3.34498 1.5343 1.91068 4.53561 1.9055C7.04542 1.9055 9.56046 1.9055 12.0703 1.9055C12.6611 1.9055 13.2258 1.90549 13.1265 1.07702C13.0219 0.165689 13.5657 0 14.3186 0C17.3827 0.010356 20.4468 0.010356 23.5108 0C24.1226 0 24.6716 0.0466045 24.5723 0.844016C24.4415 1.91586 25.1265 1.91068 25.8794 1.9055C28.7396 1.89514 31.6049 1.9055 34.4651 1.9055C34.6899 2.64595 35.3122 2.26796 35.7618 2.36116L35.7671 2.36635ZM20.5775 24.4246C21.4664 24.4712 21.1579 23.7929 21.1736 23.3786C21.2154 22.2964 21.2206 21.2091 21.1788 20.1269C21.1526 19.3605 21.4559 19.0602 22.2298 19.0913C23.3226 19.1275 24.4206 19.1275 25.5134 19.0861C25.9265 19.0706 26.6115 19.3709 26.5644 18.4958C26.5801 17.8537 26.554 17.2013 26.6272 16.5644C26.7579 15.3942 26.2873 14.9333 25.0951 15.0265C24.0964 15.1042 23.0873 15.0058 22.0886 15.0524C21.2468 15.0939 20.9069 14.7884 20.9383 13.9392C20.9853 12.8 20.9592 11.6557 20.9383 10.5165C20.933 10.0919 21.0272 9.67767 20.3213 9.57929C17.4611 9.18576 17.0742 9.47574 17.0742 12.2874C17.0742 15.0421 17.0742 15.0162 13.9945 15.0524C11.0088 15.0887 11.3278 14.4207 11.286 17.89C11.2755 18.6926 11.5997 18.9152 12.3526 18.8893C13.5552 18.8479 14.7579 18.9152 15.9605 18.8686C16.818 18.8375 17.1579 19.1741 17.0794 20.0078C17.0428 20.4013 17.0637 20.8 17.0794 21.1987C17.1892 24.8233 16.2847 24.5541 20.5723 24.4401L20.5775 24.4246Z" fill="#153240"/>
</svg>
