<svg width="30" height="30" viewBox="0 0 30 30" fill="none" xmlns="http://www.w3.org/2000/svg">
<path d="M8.23133 9.06198C10.2609 7.01554 12.2945 4.97737 14.3158 2.9268C16.3248 0.888628 18.752 -0.124257 21.5975 0.0121722C23.3318 0.0948566 24.8652 0.797677 26.2715 1.81056C27.8172 2.92267 28.875 4.4482 29.5188 6.17217C30.2117 8.02843 30.1379 9.99219 29.4163 11.8898C29.1046 12.7125 28.8628 13.5724 28.2559 14.2463C27.8951 14.2339 27.7721 14.4241 27.8336 14.7631C27.4277 14.7631 27.2186 15.0773 26.9767 15.3253C24.5659 17.7521 22.1346 20.1541 19.7565 22.614C18.0919 24.3338 16.2592 25.8883 14.7873 27.7941C13.2211 29.4437 9.16614 30.5062 6.84552 29.7538C4.42239 28.9683 2.61837 27.5709 1.34736 25.4707C-0.309059 22.738 -0.497664 19.8812 1.11365 17.0121C1.24485 16.7764 1.33916 16.516 1.44986 16.2679C1.71636 16.1935 1.86396 16.0282 1.85986 15.7388C2.02797 15.5072 2.19607 15.2799 2.36417 15.0483C4.04109 13.8122 5.3531 12.1875 6.82911 10.7405C7.34572 10.2361 8.03452 9.84335 8.23543 9.06198H8.23133ZM13.4589 8.14419C13.135 8.13179 12.9833 8.28475 12.9956 8.61135L12.9874 8.61962C12.3478 8.76019 12.028 9.22736 11.8189 9.80201L11.8066 9.81441C10.9743 10.0997 11.1834 10.6123 11.6098 11.0505C14.0411 13.56 16.4929 16.0571 18.9529 18.5418C19.3424 18.9345 19.814 19.195 20.06 18.364C20.2117 18.1986 20.3634 18.0332 20.5151 17.8679C21.864 17.008 22.9218 15.8504 23.8525 14.5646C24.9554 13.5435 26.0419 12.5099 26.4396 10.972C27.3334 10.6041 27.1858 9.97152 26.8578 9.2935V8.81393C27.2391 8.05737 27.1981 7.3959 26.4232 6.90806C25.8656 5.2461 24.8693 4.0265 23.1186 3.56761C22.8234 2.88546 22.356 2.70355 21.6959 3.07563C21.0645 2.97228 20.4331 2.98055 19.8057 3.10457C19.2645 2.78624 19.0677 3.19139 18.8545 3.56761C18.6987 3.56761 18.5429 3.57174 18.3871 3.57588C17.153 3.8446 16.4724 4.7748 15.8328 5.75461L15.8205 5.76701C15.2506 5.97786 14.7873 6.30033 14.6479 6.9494L14.6397 6.9618C14.3199 6.9494 14.1641 7.10237 14.1764 7.42483L14.1682 7.4331C13.7213 7.45378 13.4958 7.69356 13.4712 8.14005L13.463 8.14832L13.4589 8.14419Z" fill="#153240"/>
<path d="M14.7785 27.7933C16.2545 25.8916 18.0873 24.333 19.7478 22.6132C22.1258 20.1574 24.5571 17.7513 26.968 15.3245C27.214 15.0765 27.419 14.7623 27.8249 14.7664C27.8577 15.2914 27.419 15.5147 27.1279 15.8041C23.3394 19.6448 19.5387 23.4731 15.7338 27.2972C15.4755 27.5577 15.2746 27.9876 14.7703 27.7933H14.7785Z" fill="white"/>
<path d="M8.23149 9.06201C8.03059 9.84751 7.34178 10.2361 6.82518 10.7405C5.34506 12.1875 4.03714 13.8122 2.36023 15.0484C2.32743 14.4737 2.81124 14.2298 3.13514 13.928C4.84896 12.3239 6.27576 10.4056 8.23558 9.06201H8.23149Z" fill="white"/>
<path d="M1.85195 15.7383C1.85605 16.0277 1.70845 16.193 1.44195 16.2675C1.38455 15.9409 1.51985 15.7631 1.85195 15.7383Z" fill="white"/>
<path d="M27.829 14.7657C27.7675 14.4225 27.8864 14.2365 28.2513 14.2489C28.2759 14.5589 28.1037 14.7036 27.829 14.7657Z" fill="white"/>
<path d="M26.4355 10.9743C26.0378 12.5123 24.9513 13.5458 23.8484 14.567C22.3765 15.2987 21.4662 16.6093 20.5109 17.8702C20.3592 18.0356 20.2075 18.2009 20.0558 18.3663C19.5761 18.4573 19.2522 18.2257 18.9242 17.8991C16.6323 15.5716 14.3363 13.2399 12.0074 10.9454C11.622 10.565 11.6056 10.2467 11.8024 9.82088L11.8147 9.80848C12.4298 9.63897 12.807 9.23382 12.9833 8.62609L12.9915 8.61782C13.2785 8.59301 13.4302 8.44004 13.4548 8.15065L13.463 8.14239C13.8607 8.0721 14.0944 7.83645 14.16 7.43543L14.1682 7.42716C14.4552 7.40649 14.611 7.25352 14.6315 6.96413L14.6397 6.95173C15.2465 6.77809 15.6442 6.38947 15.8123 5.76934L15.8246 5.75694C16.8332 5.21535 17.5712 4.35957 18.3789 3.5782C18.5347 3.5782 18.6905 3.57406 18.8463 3.56993C19.2809 3.65675 19.6335 3.58233 19.7975 3.1069C20.4248 2.98287 21.0562 2.97461 21.6877 3.07796C22.0772 3.49552 22.5692 3.59474 23.1104 3.56993C24.8611 4.02883 25.8615 5.24843 26.415 6.91038C26.4765 7.56359 26.5175 8.22507 26.8496 8.81626C26.8496 8.97749 26.8496 9.1346 26.8496 9.29583C26.4232 9.78367 26.6528 10.4369 26.4314 10.9743H26.4355Z" fill="white"/>
<path d="M11.8022 9.81883C11.6013 10.2447 11.6218 10.563 12.0072 10.9433C14.336 13.2378 16.6321 15.5654 18.924 17.8971C19.2479 18.2278 19.5759 18.4594 20.0556 18.3643C19.8096 19.1952 19.3422 18.9389 18.9486 18.542C16.4886 16.0574 14.0367 13.5644 11.6054 11.0508C11.1831 10.6126 10.974 10.1041 11.8022 9.8147V9.81883Z" fill="white"/>
<path d="M20.5116 17.874C21.4669 16.6131 22.3771 15.3026 23.849 14.5708C22.9183 15.8607 21.8605 17.0183 20.5116 17.874Z" fill="white"/>
<path d="M18.3862 3.5769C17.5785 4.35414 16.8364 5.21405 15.8319 5.75563C16.4715 4.77582 17.1521 3.84563 18.3862 3.5769Z" fill="white"/>
<path d="M26.854 8.81188C26.5219 8.22069 26.4809 7.55921 26.4194 6.90601C27.1943 7.39384 27.2353 8.05532 26.854 8.81188Z" fill="white"/>
<path d="M26.4364 10.9768C26.6578 10.4394 26.4282 9.78204 26.8546 9.29834C27.1785 9.97635 27.3302 10.6089 26.4364 10.9768Z" fill="white"/>
<path d="M23.1138 3.56991C22.5767 3.59472 22.0805 3.49137 21.691 3.07794C22.347 2.70586 22.8145 2.88776 23.1138 3.56991Z" fill="white"/>
<path d="M12.9836 8.62256C12.8114 9.23442 12.4301 9.63544 11.8151 9.80495C12.0242 9.23029 12.344 8.76312 12.9836 8.62256Z" fill="white"/>
<path d="M15.8201 5.76758C15.652 6.38358 15.2543 6.77219 14.6475 6.94997C14.7869 6.30503 15.2502 5.98256 15.8201 5.76758Z" fill="white"/>
<path d="M19.8007 3.10775C19.6367 3.57905 19.2841 3.6576 18.8495 3.57078C19.0586 3.19457 19.2595 2.79355 19.8007 3.10775Z" fill="white"/>
<path d="M14.1632 7.42822C14.0935 7.82924 13.8639 8.0649 13.4662 8.13518C13.4908 7.69282 13.7163 7.44889 14.1632 7.42822Z" fill="white"/>
<path d="M14.6399 6.95724C14.6194 7.24663 14.4636 7.40374 14.1766 7.42027C14.1643 7.0978 14.3201 6.9407 14.6399 6.95724Z" fill="white"/>
<path d="M13.4539 8.14692C13.4334 8.43632 13.2776 8.58928 12.9906 8.61409C12.9783 8.29162 13.13 8.13452 13.4539 8.14692Z" fill="white"/>
</svg>
