<svg width="40" height="33" viewBox="0 0 40 33" fill="none" xmlns="http://www.w3.org/2000/svg">
<path d="M6.8856 11.021C8.15332 8.49731 11.4201 8.36134 13.3921 10.7001C13.7985 12.1468 13.8472 13.5936 13.3867 15.0403C13.3055 15.1654 13.2188 15.2959 13.1375 15.421C12.1678 15.4374 11.8969 16.4327 10.9488 16.8188C12.6391 17.5694 14.1831 17.3192 15.6892 17.1669C16.3177 17.1017 16.4964 16.4436 16.4531 15.8072C16.3827 14.7031 16.5073 13.6208 16.8648 12.5711C17.4716 12.1305 18.0784 11.6899 18.6852 11.2494C22.9217 11.2494 27.1583 11.2657 31.3895 11.2276C33.1339 11.2113 34.8947 11.4234 36.6337 11.0699C37.961 11.7063 38.985 12.6472 39.5917 14.0124C39.2721 14.6542 39.413 15.3395 39.4075 16.0084C39.3859 20.5826 39.375 25.1567 39.3805 29.7308C39.3805 31.1884 39.5267 32.7113 37.3001 32.4122C37.2621 32.4122 37.2026 32.5754 37.1538 32.6624C35.9944 32.9071 35.5719 32.4394 35.5664 31.2592C35.5556 28.6594 35.5123 28.6594 32.9335 28.6594C23.9402 28.6594 14.947 28.7083 5.95918 28.6158C4.31765 28.5995 3.80297 29.1053 4.06302 30.6282C4.07385 30.6772 4.06302 30.7316 4.06302 30.786C4.06302 32.9452 4.01968 32.9887 1.90681 32.9017C0.368209 32.8419 0.15692 32.4992 0.346536 30.4324C0.828704 30.1496 0.59575 29.6819 0.59575 29.3011C0.606585 19.9517 0.59575 10.6076 0.59575 1.25812C1.56009 0.676155 2.62194 0.953539 3.62419 0.991611C4.54519 1.02424 4.29056 1.88903 4.29598 2.46012C4.31765 6.45772 4.29597 10.4608 4.30681 14.4584C4.31765 17.3192 4.06844 16.8515 6.66889 16.9004C7.03187 16.9059 7.39486 16.9004 7.75784 16.8895C8.07748 17.0038 8.38086 17.031 8.41879 16.5904C8.45671 16.1335 8.25084 15.8126 7.75784 15.7474C7.67657 15.7311 7.59531 15.7039 7.51946 15.6604C7.04382 15.2213 6.89643 15.0349 6.89643 15.0349C6.89643 15.0349 6.82601 14.8826 6.77725 14.8119C6.50206 14.4054 6.44677 14.132 6.44677 14.132C6.44677 14.132 6.38717 13.7731 6.35467 13.5936C6.23118 13.0457 6.34384 12.1468 6.34384 12.1468C6.34384 12.1468 6.43051 11.7878 6.47386 11.6138C6.5172 11.4398 6.89101 11.021 6.89101 11.021H6.8856Z" fill="#153240"/>
</svg>
