<svg width="19" height="16" viewBox="0 0 19 16" fill="none" xmlns="http://www.w3.org/2000/svg">
<path d="M19 0.512102C18.173 1.09547 17.2573 1.54165 16.2882 1.83347C15.768 1.23541 15.0768 0.811518 14.3079 0.61913C13.539 0.426741 12.7296 0.475135 11.9891 0.757767C11.2486 1.0404 10.6127 1.54363 10.1676 2.1994C9.72241 2.85518 9.48938 3.63185 9.5 4.42438V5.28801C7.98227 5.32737 6.47837 4.99076 5.12223 4.30817C3.7661 3.62558 2.59982 2.6182 1.72727 1.37574C1.72727 1.37574 -1.72727 9.14847 6.04545 12.603C4.26682 13.8103 2.148 14.4157 0 14.3303C7.77273 18.6485 17.2727 14.3303 17.2727 4.39847C17.2719 4.1579 17.2488 3.91793 17.2036 3.68165C18.0851 2.81239 18.7071 1.7149 19 0.512102Z" fill="#153240"/>
</svg>
